<svg xmlns="http://www.w3.org/2000/svg" xmlns:xlink="http://www.w3.org/1999/xlink" width="163" height="44" viewBox="0 0 163 44"><defs><path id="j2q1a" d="M242.83 49C256.75 49 265 56.6 265 66.92s-8.25 17.91-22.17 17.91c-3.49 0-6.62-.47-9.36-1.35V91h-11V75.23c-3.28 5.83-10.26 9.6-20.05 9.6-10.12 0-17.23-4.02-20.37-10.16-3.14 6.14-10.25 10.15-20.37 10.15-7.28 0-13.02-2.08-16.82-5.55-3.67 3.16-9.21 5.55-17.7 5.55-13.92 0-22.16-7.6-22.16-17.9C105 56.6 113.24 49 127.16 49c5.3 0 9.74 1.13 13.25 3.07l-5.43 9.11c-1.43-2.23-3.92-3.77-7.82-3.77-6.77 0-9.36 4.58-9.36 9.5 0 4.9 2.6 9.5 9.36 9.5 7.9 0 11.2-3.3 12.72-5.9a18.05 18.05 0 0 1-.36-3.6c0-10.31 8.25-17.91 22.16-17.91 10.12 0 17.23 4.01 20.37 10.15 3.14-6.14 10.25-10.15 20.37-10.15 9.95 0 17 3.88 20.2 9.86 3.22-5.98 10.26-9.86 20.21-9.86 0 0-13.92 0 0 0zm-81.15 27.41c6.78 0 9.37-4.58 9.37-9.5 0-4.9-2.6-9.5-9.37-9.5-6.76 0-9.36 4.6-9.36 9.5 0 4.92 2.6 9.5 9.36 9.5 0 0-6.77 0 0 0zm40.74 0c6.76 0 9.36-4.58 9.36-9.5 0-4.9-2.6-9.5-9.36-9.5-6.77 0-9.37 4.6-9.37 9.5 0 4.92 2.6 9.5 9.37 9.5 0 0-6.77 0 0 0zm40.41 0c6.77 0 9.37-4.58 9.37-9.5 0-4.9-2.6-9.5-9.37-9.5-6.76 0-9.36 4.6-9.36 9.5v14.52l5.36-5.69c1.13.43 2.46.67 4 .67 0 0-6.76 0 0 0z"/></defs><g><g transform="translate(-103 -48)"><use fill="#0073cf" xlink:href="#j2q1a"/></g></g></svg>