<?xml version="1.0" encoding="utf-8"?>
<!-- Generator: Adobe Illustrator 21.0.2, SVG Export Plug-In . SVG Version: 6.00 Build 0)  -->
<svg version="1.1" id="Layer_1" xmlns="http://www.w3.org/2000/svg" x="0px" y="0px"
	 viewBox="0 0 566.9 132.3" style="enable-background:new 0 0 566.9 132.3;" xml:space="preserve">
<style type="text/css">
	.st0{fill:#E30613;}
	.st1{fill:#FFFFFF;}
</style>
<rect y="82.4" class="st0" width="566.9" height="49.9"/>
<path class="st1" d="M514.5,122.5V97h12.9c4.5,0,7.9,1.1,10.3,3.3c2.4,2.2,3.6,5.4,3.6,9.5c0,4.3-1.2,7.4-3.7,9.6
	c-2.5,2.1-6.2,3.2-11.2,3.2L514.5,122.5L514.5,122.5z M522.3,117.2h4.2c2.4,0,4.2-0.6,5.3-1.8c1.1-1.2,1.7-3.1,1.7-5.6
	c0-2.6-0.6-4.4-1.7-5.6c-1.1-1.2-2.9-1.8-5.3-1.8h-4.2V117.2z M472.5,97h8.5l10.7,25.5h-8.3l-1.9-4.7h-10.1l-1.7,4.7h-8L472.5,97z
	 M473.2,112.6h6.6l-3.4-8.8L473.2,112.6z M414.1,122.5V97h14.7c3.5,0,6.1,0.5,7.8,1.6c1.7,1.1,2.5,2.7,2.5,4.9
	c0,1.4-0.4,2.5-1.1,3.4s-1.9,1.6-3.4,2.1c1.8,0.4,3.1,1.1,4,2.1s1.4,2.2,1.4,3.7c0,1.4-0.4,2.7-1.2,3.9c-0.8,1.2-1.9,2.1-3.3,2.7
	c-0.9,0.4-2.1,0.8-3.4,0.9c-1.3,0.2-3.4,0.3-6.2,0.3L414.1,122.5L414.1,122.5z M421.5,117.4h5.9c1.8,0,3.1-0.2,3.9-0.7
	c0.7-0.4,1.1-1.2,1.1-2.2c0-0.9-0.4-1.6-1.1-2.1s-1.8-0.7-3.1-0.7h-6.6L421.5,117.4L421.5,117.4z M421.5,107h6.2
	c1.3,0,2.3-0.2,2.9-0.6s1-1,1-1.9c0-0.8-0.3-1.4-0.9-1.8s-1.5-0.6-2.7-0.6h-6.5V107z M363,97h7.6v15.9c0,1.8,0.4,3,1.2,3.7
	c0.8,0.7,2.1,1.1,3.9,1.1s3.1-0.4,3.9-1.1s1.2-2,1.2-3.7V97h7.7v15.2c0,2.1-0.2,3.8-0.7,5.1c-0.5,1.3-1.3,2.3-2.4,3.2
	c-1.2,0.9-2.6,1.6-4.2,2.1s-3.4,0.7-5.4,0.7s-3.8-0.2-5.3-0.7c-1.6-0.5-3-1.1-4.2-2.1c-1.1-0.9-2-2-2.5-3.2c-0.5-1.3-0.8-3-0.8-5.1
	L363,97L363,97z M322,97h8.5l10.7,25.5h-8.3l-1.9-4.7h-10.1l-1.7,4.7h-8L322,97z M322.7,112.6h6.6l-3.4-8.8L322.7,112.6z
	 M263.8,122.5V97h7.6v9.7l10.8-9.7h9.3l-12.2,10.7l12.5,14.8h-9.2l-8.5-10.2l-2.6,2.2v8H263.8z M212.8,97h7.6v15.9
	c0,1.8,0.4,3,1.2,3.7s2.1,1.1,3.9,1.1c1.8,0,3.1-0.4,3.9-1.1c0.8-0.7,1.2-2,1.2-3.7V97h7.7v15.2c0,2.1-0.2,3.8-0.7,5.1
	c-0.5,1.3-1.3,2.3-2.4,3.2c-1.2,0.9-2.6,1.6-4.2,2.1c-1.6,0.5-3.4,0.7-5.4,0.7s-3.8-0.2-5.3-0.7c-1.6-0.5-3-1.1-4.2-2.1
	c-1.1-0.9-2-2-2.5-3.2c-0.5-1.3-0.8-3-0.8-5.1V97z M161.6,122.5V97h12.9c4.5,0,7.9,1.1,10.3,3.3c2.4,2.2,3.6,5.4,3.6,9.5
	c0,4.3-1.2,7.4-3.7,9.6c-2.5,2.1-6.2,3.2-11.2,3.2L161.6,122.5L161.6,122.5z M169.4,117.2h4.2c2.4,0,4.2-0.6,5.3-1.8
	c1.1-1.2,1.7-3.1,1.7-5.6c0-2.6-0.6-4.4-1.7-5.6c-1.1-1.2-2.9-1.8-5.3-1.8h-4.2V117.2z M127.9,122.5V97h7.7v25.5H127.9z M72.8,109.8
	c0-4.1,1.4-7.4,4.1-9.8s6.4-3.6,11.1-3.6s8.4,1.2,11.1,3.6s4.1,5.7,4.1,9.8c0,4.1-1.4,7.4-4.1,9.8s-6.5,3.6-11.1,3.6
	c-4.7,0-8.3-1.2-11.1-3.6C74.2,117.2,72.8,113.9,72.8,109.8z M80.7,109.8c0,2.6,0.6,4.6,1.9,6s3.1,2.1,5.4,2.1
	c2.4,0,4.2-0.7,5.4-2.1c1.3-1.4,1.9-3.4,1.9-6s-0.6-4.6-1.9-6s-3.1-2.1-5.4-2.1s-4.1,0.7-5.4,2.1C81.3,105.2,80.7,107.2,80.7,109.8z
	 M34.4,122.5v-20.3h-8.7V97h25.1v5.2h-8.7v20.3C42.1,122.5,34.4,122.5,34.4,122.5z"/>
<path d="M106,26.1c-0.8-0.1-2.9-0.3-6.4-0.7c-3.4-0.3-5.9-0.5-7.6-0.7c-1.6-0.1-3.6-0.2-6-0.4c-2.4-0.1-4.7-0.2-6.9-0.2
	c-10.8,0-19.7,1.1-26.6,3.4c-6.3,2-9.4,4.6-9.4,7.8c0,3,2.8,5.4,8.4,7.3c5.5,1.9,13.3,2.9,23.5,2.9l7.4-0.1l6.9-0.4
	c0.5-1.5,1.2-3,2.2-4.4s2.2-3.1,3.8-4.8c1.6-1.8,3.3-3.4,5.1-5C101.9,29.3,103.8,27.7,106,26.1 M195.9,11.3c0-1.9-1-3.4-3.2-4.5
	c-1.9-1-4.8-1.6-8.6-1.6c-3.7,0-7.6,0.4-11.5,1.3s-8.6,2.3-13.9,4.3c-9.4,3.4-18.7,8.1-28,14.1l3.6,0.7l8.2,1.6l2,2l-2.7,2.5
	l-3.3-0.2l-7.6-1.5l-6.4-1.1c-3.2,2.3-6,4.8-8.4,7.4c-1.8,1.9-2.8,3-3.1,3.3c-0.6,0.7-1.5,1.9-2.5,3.6c3.4-0.4,6.8-0.8,10.2-1.3
	c3.1-0.4,6.3-0.9,9.5-1.3c6.9-1.2,13.7-2.6,20.4-4.3c14.4-3.7,25.6-7.8,33.5-12.5C192,19.3,195.9,15.1,195.9,11.3z M325.9,42.6
	c-0.6-1.7-1.7-2.9-3.4-3.7c-1.7-0.9-3.6-1.3-5.8-1.3c-1.1,0-2.4,0.2-4,0.5c-1.7,0.5-3.2,1.2-4.7,1.9c-4.3,2.2-7.9,5-10.8,8.4
	c-1.2,1.7-2.3,3.3-3.1,5c-0.8,1.7-1.1,3.3-1.1,4.9c0,2.3,0.8,4,2.4,5.1c1.5,1.2,3.7,1.8,6.5,1.8c2.4,0,5-0.6,7.8-1.8
	c2.7-1.1,5.6-2.8,8.6-5l-0.8-0.9l-0.2-2.3c0-2.1,0.8-4.2,2.3-6.2C321.1,46.6,323.2,44.6,325.9,42.6z M551.2,42.3
	c0,1.7-2.9,4.6-8.7,8.7l-2,1.4c-8.5,5.9-16,10.2-22.4,12.9c-6.4,2.7-12.3,4-17.6,4c-4.1,0-7.4-0.7-9.8-2.1c-2.5-1.4-3.8-3.1-3.8-5.2
	l0.7-2.8l1.5-2.7c-1.3,0.8-2.6,1.5-3.8,2.2c-3.5,1.9-6.7,3.4-9.8,4.6c-8.6,3.3-25.9,6.4-37.3,6.4c-6,0-10.9-0.6-14.9-1.8
	c-4-1.3-6-2.9-6-5c0-1.6,1.3-3,4-4.1s5.7-1.6,9.1-1.6l3.1,0.2c1.1,0,2.8,0.3,5.1,0.8V60c-1.7,0.9-2.7,1.5-3,1.7l-0.6,1.1
	c0,0.4,0.4,0.8,1.2,1.2c1.4,0.4,3.4,0.6,5.8,0.6c3.7,0,6.7-0.5,9.1-1.4c2.5-0.9,3.7-2,3.7-3.3c0-0.8-0.5-1.5-1.6-2.3
	c-1-0.8-3.8-2.1-8.6-3.9c-2.9-1.1-5.4-2.1-7.4-3c-1.7-0.7-2.9-1.4-3.7-1.9c-0.1,0.1-0.3,0.2-0.4,0.3c-1.4,1.2-2.8,2.2-4.3,3.2
	c-3.5,2.5-6.9,4.6-10.1,6.5c-3.5,1.9-6.7,3.4-9.8,4.6c-8.6,3.3-25.9,6.4-37.3,6.4c-6,0-10.9-0.6-14.9-1.8c-4-1.3-6-2.9-6-5
	c0-1.6,1.3-3,4-4.1s5.7-1.6,9.1-1.6l3.1,0.2c1.1,0,2.8,0.3,5.1,0.8v1.8c-1.7,0.9-2.7,1.5-3,1.7l-0.6,1.1c0,0.4,0.4,0.8,1.2,1.2
	c1.4,0.4,3.4,0.6,5.8,0.6c3.7,0,6.7-0.5,9.1-1.4c2.5-0.9,3.7-2,3.7-3.3c0-0.8-0.5-1.5-1.6-2.3c-1-0.8-3.8-2.1-8.6-3.9
	c-2.9-1.1-5.4-2.1-7.4-3s-3.3-1.6-4.1-2.2l-2.3,1.8c-8.5,5.9-14.8,9.8-18.9,11.7c-4.5,2.2-8.7,3.3-12.6,3.3c-1.5,0-3.2-0.2-5-0.6
	l-2-0.6c-4.4,2-8.2,3.4-11.6,4.2c-2.8,0.6-5.2,1-7.3,1.2c-2,0.3-4.3,0.5-6.7,0.5c-7.6,0-13.9-1.3-19-3.8c-3.9-2.1-6.2-4.7-6.9-7.8
	c-5.7,3.8-10.3,6.4-13.7,7.8c-5.1,2.2-10,3.3-14.8,3.3c-2.4,0-4.5-0.2-6.2-0.5s-3.3-0.8-4.7-1.5c-2.7-1.5-4.1-3.3-4.1-5.6
	c0-2.1,1.7-5.3,5.2-9.5c1.2-1.2,2.6-2.6,4.1-4.1s3.1-2.9,4.8-4.3l-0.9,0.2c-3.4,0.7-6.2,1.1-8.4,1.1c-3.1,0-5.6-0.4-7.4-1.2
	c-0.5-0.4-0.9-0.7-1.3-1c-0.8-0.8-1.2-1.7-1.2-2.6c0-2.2,1.4-4.2,4.1-5.9c2.5-1.7,6.4-2.9,11.4-3.3l2.2,1.9l-2.3,2.5l-0.2,0.7
	l0.3,0.6c0.4,0.2,1.1,0.3,2.2,0.3c1.3,0,3.6-0.3,6.9-0.8c2.8-0.3,7.9-1.2,15.3-2.8l4.4,1.2c-5.2,5.7-8.4,9.2-9.6,10.5
	c-3.3,3.7-6.1,7.1-8.4,10.2c-2.4,3.1-3.6,5-3.6,5.8c0,0.4,0.3,0.7,1,1.1l1.3,0.3c1.1,0,2.8-0.5,4.9-1.5c2-1,3.7-1.8,4.9-2.4
	c3.1-1.8,7-4.3,11.6-7.5c1.6-1.1,3.4-2.3,5.4-3.7c7.1-8,22.4-15.4,40.3-15.4c6.7,0,12.3,1.3,16.9,3.9c4.5,2.8,6.7,6,6.7,9.7
	c0,2.1-0.6,4.1-1.9,6c-0.5,1-1.1,1.9-1.9,2.8c-0.8,0.9-1.7,1.9-3,3.1l1.4,0.3c1.8,0,4.5-1.1,8.3-3.3c3.3-1.8,9.7-6.1,19.2-12.8
	c0.8-2.4,3.8-4.6,8.9-6.4c6.1-2.1,13.2-3.2,21.3-3.2c2.4,0,4.5,0,6.3,0.1s3.5,0.5,5.1,1.1c3.1,1.1,4.7,2.5,4.7,4.5
	c0,1.6-1.7,3-5.1,4.4c-1.5,0.6-3.1,1.1-4.9,1.3c-1.8,0.4-4.3,0.5-7.4,0.5l-2.4-2.1c1.8-0.9,2.9-1.6,3.4-2.1l0.6-1.3
	c-0.4-0.4-0.8-0.8-1.2-1c-0.5-0.1-1.8-0.3-3.8-0.4c-3.1,0-5.3,0.4-6.8,1.1c-1.6,0.6-2.3,1.3-2.3,2.1c0,1.4,2.9,3.1,8.8,5.1l5.3,2
	c1.7,0.7,3.1,1.3,4.4,1.9c1.3,0.7,2.4,1.4,3.5,2.2c1.8,1.6,2.7,3.2,2.7,4.7c-0.2,1.1-0.7,2.1-1.4,3.1c3-1.7,5.8-3.2,8.4-4.7
	c5.3-3.1,11.5-7.5,18.7-13.3c0.9-2.4,3.8-4.5,8.8-6.3c6.1-2.1,13.2-3.2,21.3-3.2c2.4,0,4.5,0,6.3,0.1s3.5,0.5,5.1,1.1
	c3.1,1.1,4.7,2.5,4.7,4.5c0,1.6-1.7,3-5.1,4.4c-1.5,0.6-3.1,1.1-4.9,1.3c-1.8,0.4-4.3,0.5-7.4,0.5l-2.4-2.1c1.8-0.9,2.9-1.6,3.4-2.1
	l0.6-1.3c-0.4-0.4-0.8-0.8-1.2-1c-0.5-0.1-1.8-0.3-3.8-0.4c-3.1,0-5.3,0.4-6.8,1.1c-1.6,0.6-2.3,1.3-2.3,2.1c0,1.4,2.9,3.1,8.8,5.1
	l5.3,2c1.7,0.7,3.1,1.3,4.4,1.9c1.3,0.7,2.4,1.4,3.5,2.2c1.8,1.6,2.7,3.2,2.7,4.7c0.1,1.1-0.4,2.1-1.4,3.1c3-1.7,5.8-3.2,8.4-4.7
	c5.8-3.3,12.7-8.3,20.7-14.9l2.6-4.1c0.4-0.5,1.1-1,2.1-1.7c1.1-0.5,2.3-0.8,3.6-0.9l6.9-0.7h1.1c0.8,0,1.7,0.2,2.7,0.5
	c1.1,0.7,1.6,1.3,1.6,1.7V35l-0.7,1.1l-12.3,19.5l-2,4l-0.6,1.9l0.6,1.2l1.1,0.2c2.8,0,7.4-1.8,14-5.5c6.3-3.6,16.1-10.3,29.3-20.2
	c0.7,1.1,1.4,2.1,1.9,3.1c0.1,0.2,0.3,0.4,0.4,0.8L551.2,42.3z M527,22.2c0,1.9-0.4,3.3-1.4,4.4c-1,1-2.8,1.5-5.3,1.5
	c-1.8,0-3.3-0.1-4.4-0.3c-1.3-0.1-2.8-0.4-4.4-0.9c-1.8-0.5-3.1-1-3.8-1.5c-0.8-0.5-1.2-1.1-1.2-1.7s0.8-1.8,2.5-3.4
	c1-1,2-1.7,3.1-2.1c0.9-0.4,1.6-0.6,2.2-0.6c1.2,0,2.7,0.3,4.6,0.9l2.3,0.8l1.7,0.5c0.8,0.2,1.7,0.5,2.6,0.9
	C526.2,21.1,526.7,21.6,527,22.2z M213.9,10.8c0,3.7-2.7,7.4-8.2,11c-5.6,3.7-13.7,7.4-24.4,11.2c-5.2,1.9-10.7,3.6-16.6,5.2
	c-5.9,1.7-12.1,3.1-18.3,4.4c-11.7,2.4-24.6,4.3-38.8,5.8l-0.3,1.2v3c0,3.4,1.8,6.1,5.6,8c3.6,2,8.6,3,15.3,3c8.1,0,18.3-2,30.6-6
	c6.6-2.2,13.2-4.8,19.6-7.6c6.5-2.8,13.9-6.4,22-10.7l4.9,0.5c-2.1,8.5-4.5,16-7.3,22.5c-3.3,7-6.3,12.2-9.1,15.6
	c-1.4,1.7-2.8,3.2-4.2,4.5c-1.6,1.3-3.1,2.5-4.7,3.6c-1.8,1.2-3.9,2.4-6.3,3.7c-2.4,1.3-5.1,2.5-8,3.7l-5.3,1.8
	c-1.6,0.5-3.2,0.8-4.9,0.8s-3.3-0.6-4.7-1.9c-0.4-0.5-0.6-1.1-0.7-1.9c-0.1-0.8-0.2-1.4-0.2-1.6c0-3.1,1.1-6.2,3.4-9.5
	c1.5-1.8,3.1-3.3,4.8-4.8c1.7-1.4,3.9-2.9,6.7-4.7l2.6-0.3l3.6,1.1l0.8,1.7c-1.7,1.3-3,2.4-3.8,3.3c-0.4,0.4-1.2,1.3-2.3,2.7
	c-0.5,0.9-0.9,1.6-1.1,2.3c-0.3,0.6-0.4,1.4-0.4,2.2l0.4,2.4l0.3,0.6c3.8-1.7,6.9-4.5,9.3-8.4c2.9-4.4,6.1-12.7,9.4-25
	c-11.2,4.8-21.5,8.3-30.7,10.7c-10.9,3-21.2,4.5-30.9,4.5s-17.7-1.8-24-5.4c-6.5-3.5-9.7-8.1-9.7-13.8v-0.9c0-0.1,0-0.3,0-0.5
	c-0.4,0.1-0.9,0.6-1.4,1.3l-4.6,0.3l-8.9,0.1c-13.5,0-24.7-1.5-33.6-4.4c-9.1-2.9-13.6-6.8-13.6-11.6s4.4-8.6,13-11.5
	c8.5-2.9,19.6-4.3,33.3-4.3c5.3,0,11.3,0.3,18,0.8s14,1.3,21.8,2.4c11.1-6.5,23.4-11.8,37.2-15.9c13.6-4,26.8-6,39.7-6
	c7.6,0,13.6,0.9,18.1,2.8C211.7,4.6,213.9,7.3,213.9,10.8z"/>
</svg>
