<svg class="" xmlns="http://www.w3.org/2000/svg" viewBox="0 0 738 256">
    <g fill="none" fill-rule="evenodd">
        <path fill="#ED1C24"
              d="M60.791 255.875h642.616L737.771.001H26.725L.985 189.155s-13.547 66.72 59.806 66.72"/>
        <path fill="#FEFEFE"
              d="M273.078 80.467s-1.257 9.423-1.51 10.372h-30.615c-10.599 0-8.83-8.27-8.83-8.27l1.287-7.69h31.754c8.745 0 7.914 5.588 7.914 5.588m-12.244 92.5h-26.526c-8.714 0-12.478-6.26-12.419-11.374.182 0 8.737-62.596 8.737-62.596l31.825.463s8.336.608 7.212 10.42c-.278 3.012-8.796 62.06-8.83 63.087m42.719-73.977h122.241c6.75 0 27.887 2.31 25.154 22.521-2.815 20.704-7.25 51.457-7.25 51.457h-25.703s-11.944-1.198-10.59-11c1.134-8.031 4.175-32.506 4.99-38.759.85-6.749-6.97-6.185-6.97-6.185h-9.858l-7.253 55.944h-24.564s-13.854 1.001-12.512-10.224c1.354-11.188 4.009-30.353 4.717-37.562.768-8.11-6.727-7.95-6.727-7.95l-9.7-.208-7.25 55.944h-39.064l10.339-73.978zm-131.968 45.371v-.107s12.516-1.131 19.065-5.166c6.567-4.038 8.443-12.82 8.443-20.937-.13-6.445-1.516-22.246-37.669-22.246h-65.31l-10.34 76.947s27.038.07 40.54.115c.037-.063 4.213-33.352 4.253-33.879.16 0 17.919 26.3 17.919 26.3s5.28 7.58 19.064 7.58h32.741s-28.706-28.521-28.706-28.607m-10.824-17.184h-27.142l1.973-14.707s18.887-.594 21.738 2.284c.197 0 3.43 1.984 3.43 5.96.093 0 0 6.463 0 6.463m366.462-46.858s-1.246 9.422-1.506 10.375h-30.597c-10.62 0-8.86-8.277-8.86-8.277l1.306-7.705h31.762c8.737 0 7.895 5.607 7.895 5.607m-12.222 92.51h-26.552c-8.71 0-12.445-6.256-12.408-11.377.193 0 8.722-62.611 8.722-62.611l31.814.474s8.37.582 7.238 10.413c-.282 2.996-8.8 62.04-8.814 63.101m60.67-111.668s20.284-7.042 33.363-4.747c13.08 2.285 19.77 12.579 13.239 35.463-6.538 22.88-28.528 66.958-53.333 84.146 0 0 39.768-85.296 6.73-114.862"/>
        <path fill="#00AEEA"
              d="M627.538 70.658s18.107-5.143 29.05-2.362c10.97 2.778 12.13 11.793 10.143 19.002-2.003 7.209-16.966 52.18-76.061 77.745 0 0 61.836-76.603 36.868-94.385"/>
    </g>
</svg>
