<svg width="234" height="98" xmlns="http://www.w3.org/2000/svg"><g fill="none" fill-rule="evenodd"><path d="M76.113 34.523c3.997 0 2.665-5.551.622-6.972-2.709-.4-5.285-1.688-7.15.178 0 5.773.977 6.217 6.528 6.794m-59.417-6.75c3.286-.178 3.952-1.954 4.485-5.595-1.377-2.31-7.416-2.62-8.97-.178-1.555 5.196-1.51 5.15 4.485 5.773m47.427-10.347c1.332-.133 6.661-2.798 6.661-4.618-.71-1.866-3.153-4.042-4.84-4.042-5.018 2.754-10.569 4.797-1.82 8.66m-36.238-3.82c1.51 0 4.041-1.775 5.462-2.797.045-.311.09-.666.09-.977-4.042-5.551-6.706-7.238-11.147-2.265.178 1.91 3.508 4.619 5.595 6.04m19.895-4.308c3.863 0 2.975-4.84 3.064-7.638-1.82-2.22-5.196-2.087-6.883-.355-.71 6.084-2.487 7.549 3.82 7.993M19.093 97.182c-3.819-.932-5.729-3.464-5.729-7.016.622-2.71 3.064-4.663 3.064-7.105L9.901 37.099c-1.909-3.82-7.505-.533-9.725-3.82-2.22-9.592 17.186 2.22 22.071-2.664 7.86-26.645 42.01-23.003 43.697 5.15 2.487 3.51 9.947.09 12.167 3.732-.444 3.108-2.087 23.846-5.24 25.046l-49.203.133c-3.287 1.199.621 14.965 1.154 18.296.4 1.42.533 2.176 2.31 2.93h35.57c1.554-.621 3.02-1.376 4.796-1.687 12.08.666 6.883 17.719-3.375 11.546-.977-.977-1.91-2.176-2.53-2.664-2.71-1.2-33.129-1.111-35.172 0-2.443 2.575-3.686 4.085-7.327 4.085" fill="#005093"/><g fill="#FFFFFE" class="header__logo-image--wheel"><path d="M19.094 94.073c-6.706-2.665 1.066-11.013 3.997-4.263.266 2.71-1.2 4.263-3.997 4.263M67.365 94.073c-5.862-2.354-.49-10.214 3.863-4.885 1.022 3.02-.843 4.885-3.863 4.885"/></g><path d="M22.113 60.235c-3.997-1.998-4.396-18.784-4.396-22.56.311-.354.666-.665 1.021-.976 15.987.666 32.73 3.375 48.982 5.15.488.268.755.312 1.332 1.245 0 3.286-.755 15.276-3.864 17.14H22.113z" fill="#D8232A"/><path d="M57.906 35.477c-4.574-.484-27.977-1.978-29.62-4.44.888-14.025 17.097-16.443 26.955-9.1 1.777 1.977 9.148 13.012 2.665 13.54" fill="#FFF101"/><g fill="#D8232A" class="header__logo-image--text"><path d="M185.73 39.217h18.864c.433 0 .77.337.818.77v5.15a.921.921 0 01-.818.817h-10.01c-.384.048-.721.337-.77.722v6.063a.869.869 0 00.77.77h6.786a.87.87 0 01.77.77v5.198a.92.92 0 01-.77.77h-6.786a.869.869 0 00-.77.77v7.362c.049.385.386.674.77.722h10.01c.433.048.77.385.818.77v5.39c-.048.433-.385.77-.818.77H185.73c-.433-.048-.77-.385-.818-.77V39.987c.048-.385.385-.722.818-.77M116 39.217h18.864c.433 0 .77.337.818.77v5.15a.921.921 0 01-.818.817h-10.01c-.384.048-.72.337-.769.722v6.063a.869.869 0 00.77.77h6.785a.919.919 0 01.77.77v5.198c-.048.385-.385.721-.818.77h-6.738a.869.869 0 00-.769.77v7.362c.048.385.385.674.77.722h10.01c.432.048.77.385.817.77v5.39c-.048.433-.385.77-.818.77H116c-.433-.048-.77-.385-.818-.77V39.987c.048-.385.385-.722.818-.77M218.116 53.702c.048.433.337.77.77.818h1.395c.915-.048 2.214-.144 2.792-1.01.385-.626.529-1.444.577-2.166.096-.866.096-1.684 0-2.55-.096-.77-.241-1.685-.914-2.214-.433-.337-.963-.48-1.492-.53-.241-.048-2.166-.144-2.358-.096a.919.919 0 00-.77.77v6.978zm2.502-14.485c.963 0 1.925.048 2.888.145l.673.096c1.203.192 2.31.481 3.417.962.481.193.963.481 1.396.77.24.144.433.29.625.481.578.482 1.059 1.06 1.492 1.685.144.24.241.481.385.722.433.818.674 1.684.914 2.598.337 1.781.385 3.61.241 5.39-.144 1.06-.337 2.117-.722 3.128-.289.625-.577 1.155-.962 1.684-.722.963-1.588 1.781-2.647 2.358l5.197 16.025c-.144.577-.385.722-.77.77h-7.651c-.385-.048-.578-.145-.722-.626l-.048-.144-3.994-13.234v.048-.048l-.049-.192c-.144-.337-.385-.53-.721-.578h-.674c-.433.048-.722.385-.77.818v13.956-.77c-.048.385-.385.722-.818.77h-7.267c-.433-.048-.77-.385-.77-.77V39.987c0-.385.337-.722.77-.77h10.587zM182.361 39.987l-8.373 35.466a.781.781 0 01-.77.578h-7.604a.784.784 0 01-.722-.53l-8.421-35.61a.778.778 0 01.77-.674h7.17c.337 0 .626.241.722.53l4.187 20.355c.096.096.144.096.192 0l4.091-20.356c.144-.288.385-.529.722-.529h7.218c.433.048.722.337.818.77M140.35 39.217h7.218c.433.048.77.385.818.77v28.44c.05.337.385.626.77.674h9.577c.433.048.77.385.818.77v5.39c-.048.433-.385.77-.818.77H140.35a.87.87 0 01-.77-.77V39.987a.87.87 0 01.77-.77M95.596 65.492c.144 1.396.481 2.984 1.781 3.754.77.433 1.636.53 2.502.481.53-.048 1.107-.096 1.636-.337.53-.24 1.011-.578 1.348-1.059.336-.529.336-1.107.192-1.636-.24-.674-.626-1.25-1.01-1.78-1.156-1.444-2.599-2.647-4.043-3.754-.674-.529-1.395-1.059-2.069-1.588a73.46 73.46 0 01-3.706-3.032c-.962-.914-1.973-1.828-2.743-2.935a12.737 12.737 0 01-1.203-2.262c-.096-.337-.24-.674-.288-1.01-.24-1.01-.337-2.022-.193-3.08.048-.53.145-.963.29-1.444.143-.48.336-.914.528-1.347.241-.482.53-.867.818-1.3l.337-.385a11.752 11.752 0 012.647-2.213c.53-.337 1.107-.626 1.684-.915.722-.288 1.396-.48 2.118-.673l.577-.097c1.54-.288 3.08-.337 4.668-.192.722.096 1.444.192 2.165.385.674.192 1.3.433 1.925.722.578.288 1.06.577 1.54.914.241.144.433.29.626.433.77.626 1.395 1.348 1.973 2.166.29.481.577.914.818 1.443.241.53.433 1.06.577 1.588.097.482.193.963.241 1.444.048.29.048.577.048.866v.29c-.048.432-.385.77-.77.817h-7.218c-.385-.096-.674-.385-.722-.77-.096-.818-.192-1.636-.626-2.406-.24-.433-.577-.722-1.058-.914-.289-.145-.626-.193-.963-.24-.48 0-1.01 0-1.49.095-.723.193-1.397.578-1.782 1.203a2.386 2.386 0 00-.144 1.636c.336 1.107 1.058 2.022 1.828 2.888a23.922 23.922 0 002.6 2.358c1.346 1.107 2.79 2.07 4.137 3.128 1.54 1.251 3.08 2.502 4.331 4.042.482.578.867 1.155 1.203 1.78.337.674.578 1.348.77 2.07.048.192.097.337.145.53.24 1.202.24 2.405.096 3.608-.048.241-.096.482-.193.722-.192.722-.433 1.396-.818 2.07a7.07 7.07 0 01-1.058 1.395l-.337.385c-.77.77-1.588 1.396-2.55 1.925-.482.241-.963.481-1.492.674a36.74 36.74 0 01-2.166.625l-.577.096a19.74 19.74 0 01-5.053.05 21.916 21.916 0 01-2.454-.435c-.53-.192-1.107-.384-1.637-.577-.673-.337-1.347-.674-1.973-1.107a20.492 20.492 0 01-1.058-.866 9.212 9.212 0 01-1.3-1.444c-.288-.385-.529-.818-.77-1.203a12.312 12.312 0 01-.673-1.684 13.103 13.103 0 01-.433-1.877l-.145-1.732v-.53a.953.953 0 01.674-.673h7.218c.337.096.578.385.674.721v.193z"/></g><g fill="#005093" class="header__logo-image--logo"><path d="M91.698 89.794v4.812c0 .24 0 .385.048.578h-2.02c.047-.193.095-.337.095-.578V84.5c0-.241-.048-.385-.096-.578h2.021c-.048.193-.048.385-.048.578v4.427h4.908V84.5c0-.193 0-.385-.048-.578h2.022c-.049.193-.097.337-.097.578v10.105c0 .24.048.385.097.578h-2.022c.048-.193.048-.337.048-.578v-4.812h-4.908zM114.653 89.698h4.187a5.932 5.932 0 00-.241-1.203c-.144-.481-.385-.866-.77-1.155-.29-.241-.626-.337-1.06-.337-.576 0-1.057.24-1.442.722-.385.433-.626 1.107-.674 1.973zm5.582 4.86c-.577.289-1.06.482-1.492.578-.433.144-.962.192-1.491.192-1.54 0-2.647-.433-3.417-1.347-.722-.77-1.06-1.83-1.06-3.176 0-1.492.386-2.647 1.204-3.465.722-.77 1.685-1.155 2.888-1.155 1.155 0 2.069.385 2.743 1.107.625.77 1.01 1.78 1.058 3.176h-6.063c0 .962.096 1.732.289 2.31.433 1.155 1.299 1.732 2.55 1.732.914 0 1.732-.385 2.55-1.058l.24 1.106zM139.003 89.938c-.192.096-.337.193-.481.241-.096.048-.53.192-1.3.481-.577.24-1.01.53-1.203.866-.24.337-.384.722-.384 1.107 0 .481.144.866.384 1.107.289.288.626.433 1.059.433.674 0 1.203-.289 1.588-.818.24-.337.337-.722.337-1.155v-2.262zm.096 4.042c-.385.433-.673.722-.962.867-.53.336-1.107.481-1.781.481-.673 0-1.203-.193-1.636-.578-.481-.48-.722-1.155-.722-1.925 0-.962.337-1.684 1.059-2.165.337-.193.626-.337.914-.433.24-.145.915-.337 1.877-.626.433-.144.722-.289.914-.48.193-.193.24-.434.24-.723 0-.385-.143-.722-.432-.914-.29-.24-.674-.385-1.155-.385-.385 0-.77.096-1.107.192a5.284 5.284 0 00-1.155.77l-.288-1.155c.577-.24 1.106-.433 1.539-.577a6.843 6.843 0 011.492-.144c.915 0 1.588.192 2.118.53.48.384.72.865.72 1.491v5.245c0 .481.194.722.53.722.145 0 .338-.096.578-.24v.962c-.481.288-.914.433-1.3.433-.432 0-.77-.096-.962-.289-.24-.192-.384-.578-.481-1.059zM163.016 87.388c.626-.77 1.492-1.203 2.502-1.203.578 0 1.059.096 1.444.289.385.192.674.529.914.914a4.81 4.81 0 011.252-.914c.385-.193.866-.29 1.443-.29 1.685 0 2.503.819 2.503 2.455v5.967c0 .193.048.385.096.578h-1.877c.048-.193.096-.385.096-.578v-5.678c0-.433-.096-.818-.24-1.011-.241-.337-.674-.481-1.251-.481-.578 0-1.06.144-1.348.433-.337.289-.481.722-.481 1.25v5.487c0 .24 0 .385.048.578h-1.83c.049-.193.049-.337.049-.578v-5.678c0-.433-.096-.77-.24-1.011-.241-.337-.674-.481-1.203-.481-.578 0-1.011.144-1.348.433-.337.289-.481.674-.481 1.155v5.582c0 .193 0 .385.048.578h-1.828c.048-.193.048-.385.048-.578v-7.651c0-.241 0-.385-.048-.577h1.732v1.01zM189.002 84.837v-1.25c.433-.194.866-.29 1.203-.29.337 0 1.059.145 2.166.385.192.048.336.048.529.048.24 0 .48-.096.674-.24v1.203c-.29.144-.53.24-.77.24-.193 0-.722-.144-1.54-.337a4.676 4.676 0 00-1.107-.144c-.385 0-.77.096-1.155.385m2.31 2.07c-.337 0-.626.096-.914.288-.29.144-.482.385-.674.626-.433.722-.674 1.684-.674 2.887 0 1.251.24 2.262.674 2.984.192.288.433.481.674.625.288.193.577.29.914.29.289 0 .577-.097.866-.29.289-.144.529-.337.674-.625.48-.722.673-1.733.673-2.936 0-1.25-.192-2.213-.673-2.935-.337-.578-.866-.867-1.54-.915m0-.72c1.299 0 2.31.432 3.032 1.346.673.818 1.01 1.877 1.01 3.224 0 1.444-.385 2.6-1.155 3.417-.722.77-1.684 1.155-2.887 1.155-1.3 0-2.262-.433-2.984-1.3-.722-.818-1.058-1.973-1.058-3.416 0-1.252.336-2.31 1.058-3.176.722-.818 1.685-1.203 2.984-1.25M209.743 87.195h-1.3v-.818h1.3v-1.684l1.78-.193c-.048.337-.048.578-.048.674v1.203h1.396v.818h-1.396v6.352c0 .53.24.77.674.77.193 0 .433-.096.77-.24v.914c-.481.192-.962.337-1.492.337-.577 0-1.01-.145-1.251-.433-.29-.289-.433-.722-.433-1.3v-6.4zM227.981 89.698h4.187a5.864 5.864 0 00-.24-1.203c-.145-.481-.386-.866-.723-1.155-.337-.241-.673-.337-1.107-.337-.577 0-1.058.24-1.443.722-.385.433-.626 1.107-.674 1.973zm5.582 4.86c-.577.289-1.059.482-1.492.578-.433.144-.962.192-1.49.192-1.54 0-2.648-.433-3.418-1.347-.722-.77-1.059-1.83-1.059-3.176 0-1.492.433-2.647 1.203-3.465.722-.77 1.684-1.155 2.888-1.155 1.154 0 2.07.385 2.743 1.107.625.77 1.01 1.78 1.058 3.176h-6.063c0 .962.096 1.732.29 2.31.432 1.155 1.298 1.732 2.55 1.732.913 0 1.731-.385 2.55-1.058l.24 1.106z"/></g></g></svg>